<svg id="Layer_1" data-name="Layer 1" xmlns="http://www.w3.org/2000/svg" viewBox="0 0 331.62 37.65"><defs><style>.cls-1{fill:#fff;}</style></defs><title>TW retail logo</title><path class="cls-1" d="M236.48,11.93a3.42,3.42,0,1,1,3.42,3.43,3.41,3.41,0,0,1-3.42-3.43m5.93,0a2.52,2.52,0,1,0-5,0,2.52,2.52,0,1,0,5,0m-.83,1.87h-.89l-.82-1.56h-.61v1.56h-.78v-3.7h1.79c1,0,1.43.26,1.43,1.13,0,.68-.36,1-1,1Zm-1.3-2.12c.41,0,.7-.09.7-.54s-.53-.47-.89-.47h-.83v1Z"/><polygon class="cls-1" points="21.85 5.15 13.97 5.15 13.97 30.36 7.88 30.36 7.88 5.15 0 5.15 0 0 21.85 0 21.85 5.15"/><path class="cls-1" d="M29.93,10.77A10.49,10.49,0,0,1,36.45,8c2.38,0,5.73,1.44,5.73,6.83V30.35H36.4V17.21c0-1.76.12-4.52-2.38-4.52-1.67,0-3,1.21-4.09,2.38V30.35H24.15V0h5.78V10.77"/><path class="cls-1" d="M44.56,19.43c0-5.81,3.2-11.39,9.6-11.39s9.6,5.58,9.6,11.39-3.24,11.39-9.6,11.39-9.6-5.62-9.6-11.39m13.27,0c0-2.73-.55-7.14-3.67-7.14s-3.67,4.41-3.67,7.14.54,7.14,3.67,7.14,3.67-4.41,3.67-7.14"/><path class="cls-1" d="M78.54,28.09A10.51,10.51,0,0,1,72,30.82c-2.38,0-5.74-1.45-5.74-6.83V8.5h5.78V21.66c0,1.75-.12,4.52,2.38,4.52,1.68,0,3-1.21,4.1-2.37V8.5h5.78V30.36H78.54V28.09"/><path class="cls-1" d="M93.76,23.18a1.49,1.49,0,0,0-1.64,1.37c0,2.85,15.14-2.11,15.14,6.43,0,3.24-2.19,6.67-10.85,6.67-7.53,0-10.11-2.65-10.11-5.5,0-1.68,1.06-2.54,2.38-3.32A3.48,3.48,0,0,1,87,26.06c0-2.15,1.17-3.28,2.85-4.37a8.23,8.23,0,0,1-2.73-6c0-4.84,4.09-7.65,8.82-7.65a10.53,10.53,0,0,1,5.39,1.52,5.35,5.35,0,0,1,3.94-1.79,8.69,8.69,0,0,1,1.68.15V12a5.1,5.1,0,0,0-1.83-.46,3.22,3.22,0,0,0-1.56.46,8.79,8.79,0,0,1,1.17,3.71c0,4.84-4.05,7.64-8.77,7.64l-2.15-.16m-1.83,7.22a1.5,1.5,0,0,0-.9,1.37c0,2,4.1,2.14,5.46,2.14,1,0,6.05-.11,6.05-1.87,0-1.13-.78-1-4.22-1.21Zm4-10.88c2.42,0,3.12-2,3.12-4.06s-.94-3.67-3.12-3.67c-2.42,0-3.16,2-3.16,4.09s.94,3.63,3.16,3.63"/><path class="cls-1" d="M115.18,10.77A10.48,10.48,0,0,1,121.69,8c2.38,0,5.74,1.44,5.74,6.83V30.35h-5.78V17.21c0-1.76.12-4.52-2.37-4.52-1.68,0-3,1.21-4.09,2.38V30.35H109.4V0h5.78V10.77"/><path class="cls-1" d="M137.93,8.5h4.48v4.8h-4.48V24.43c0,1.06.31,2.14,2.19,2.14a4.11,4.11,0,0,0,2.3-.82v4.41a13.58,13.58,0,0,1-3.71.66c-3.59,0-6.55-2-6.55-6.79V13.3h-2.7V8.5h2.7V3h5.77V8.5"/><polygon class="cls-1" points="166.45 30.36 163.33 30.36 158.18 5.54 158.1 5.54 152.67 30.36 149.55 30.36 143.19 0 146.24 0 151.23 24.5 151.31 24.5 156.77 0 159.78 0 164.97 24.5 165.04 24.5 170.39 0 173.39 0 166.45 30.36"/><path class="cls-1" d="M172.07,19.59c0-8.08,3.82-11.39,8.62-11.39s8.62,3.31,8.62,11.39S185.48,31,180.69,31s-8.62-3.32-8.62-11.39m14.2,0c0-3.67-.89-8.82-5.58-8.82s-5.58,5.15-5.58,8.82.9,8.82,5.58,8.82,5.58-5.15,5.58-8.82"/><path class="cls-1" d="M194.74,13.46h.08c1.2-2.57,2.76-5,6-5H202v2.77c-4-.55-6.05,3.75-7.22,6.87V30.36h-3V8.82h3v4.64"/><polygon class="cls-1" points="207.46 18.81 215.46 8.82 218.85 8.82 212.91 16.19 219.75 30.36 216.47 30.36 210.97 18.65 207.46 22.98 207.46 30.36 204.41 30.36 204.41 0 207.46 0 207.46 18.81"/><path class="cls-1" d="M232.93,13.62A5.56,5.56,0,0,0,228,10.77c-2,0-3.87,1-3.87,3.2,0,5.27,11.36,3,11.36,10.22,0,4.22-3,6.79-7.06,6.79a8.85,8.85,0,0,1-8-4.53l2.43-1.52a6,6,0,0,0,5.61,3.47c2.22,0,4.21-1.21,4.21-3.67,0-5.42-11.36-2.84-11.36-10.57,0-3.71,3-6,6.59-6a8.24,8.24,0,0,1,7.18,3.74l-2.14,1.68"/><path class="cls-1" d="M260,0c9.42,0,11,5,11,8.49a8,8,0,0,1-5.72,7.67l5.8,14.14h-3.54L262,16.67h-6V30.3h-3.2V0Zm-4,13.94h4.29c6.27,0,7.51-2.77,7.51-5.57,0-4.17-2.61-5.65-6.93-5.65H256Z"/><path class="cls-1" d="M275.19,20.06c0,6.15,2.61,8.29,5.73,8.29,2.26,0,4.17-1.83,5.26-3.7l2.18,1.44a8.22,8.22,0,0,1-7.75,4.83c-4.79,0-8.61-3.31-8.61-11.37s3.82-11.37,8.61-11.37c6.2,0,8,6.62,7.56,11.88ZM285,17.49c.08-2.77-1.4-6.74-4.6-6.74-3.43,0-5.06,3.7-5.11,6.74Z"/><path class="cls-1" d="M296,8.8h4.87v2.57H296V24.88c0,2.11,0,3.47,2.46,3.47a9.62,9.62,0,0,0,2.41-.27V30.3a9,9,0,0,1-3,.63c-5.14,0-4.86-3.46-4.86-7.4V11.37h-3.27V8.8h3.27v-7h3Z"/><path class="cls-1" d="M314.72,30.3l-.31-2.73c-1.75,1.72-3.7,3.35-6.23,3.35a6.05,6.05,0,0,1-6-6.15c0-6.16,6.47-7.48,11.22-8.76l1-.27V14.53c0-2.45-1.68-3.78-4.09-3.78s-4,1.56-5.26,3.39l-2.14-1.6c1.79-2.57,4.13-4.36,7.4-4.36,2.92,0,7.13,1.79,7.13,6.7V25.55A13.07,13.07,0,0,0,318,30.3ZM313.2,18.58c-2.88.86-8.14,2-8.14,5.88A3.51,3.51,0,0,0,308.29,28c2.42,0,4.63-1.67,6.12-3.5V18.22Z"/><path class="cls-1" d="M324.53,3.35h-3V0h3Zm0,26.95h-3V8.8h3Z"/><rect class="cls-1" x="328.58" width="3.04" height="30.29"/></svg>